<svg width="20" height="21" viewBox="0 0 20 21" fill="none" xmlns="http://www.w3.org/2000/svg">
<g clip-path="url(#clip0_137_1033)">
<path d="M9.99982 0.5C9.67587 0.5 9.41388 0.762146 9.41388 1.08594C9.41388 1.40973 9.67587 1.67187 9.99982 1.67187C14.8462 1.67187 18.8276 5.61428 18.8276 10.4606C18.8276 10.7846 19.0898 11.0466 19.4136 11.0466C19.7373 11.0466 19.9995 10.7846 19.9995 10.4606C19.9995 4.96822 15.4922 0.5 9.99982 0.5Z" fill="#2889BF"/>
<path d="M17.0698 11.0466C17.3938 11.0466 17.6557 10.7846 17.6557 10.4606C17.6557 6.2608 14.1996 2.84375 9.99982 2.84375C9.67587 2.84375 9.41388 3.10574 9.41388 3.42969C9.41388 3.75348 9.67587 4.01547 9.99982 4.01547C13.5536 4.01547 16.4839 6.90685 16.4839 10.4606C16.4839 10.7846 16.746 11.0466 17.0698 11.0466Z" fill="#2889BF"/>
<path d="M9.99982 5.18726C9.67587 5.18726 9.41388 5.4494 9.41388 5.77319C9.41388 6.09714 9.67587 6.35913 9.99982 6.35913C12.261 6.35913 14.1403 8.19934 14.1403 10.4605C14.1403 10.7845 14.4023 11.0465 14.7262 11.0465C15.05 11.0465 15.3122 10.7845 15.3122 10.4605C15.3122 7.55267 12.9077 5.18726 9.99982 5.18726Z" fill="#2889BF"/>
<path d="M7.02669 5.8923C7.19957 5.72064 7.24809 5.46033 7.14967 5.23831L5.2144 0.848365C5.09828 0.585761 4.80989 0.446144 4.52959 0.519386L1.07806 1.54706C0.700402 1.64213 0.389123 1.87955 0.200983 2.21433C-0.0170652 2.60282 -0.0599423 3.09201 0.0836427 3.55603C2.34301 10.8937 9.24058 18.0454 16.9423 20.4153C17.8126 20.6861 18.7309 20.2949 18.9523 19.4219L19.9795 15.9814C20.0539 15.7034 19.9148 15.4121 19.6516 15.2954L15.2635 13.3906C15.0421 13.291 14.7783 13.3409 14.6066 13.5159C13.7546 14.3862 13.1178 15.0207 12.9033 15.213V15.2124C10.6276 13.7222 6.81886 9.92367 5.28658 7.59625C5.55895 7.30847 6.54497 6.36899 7.02669 5.8923Z" fill="#2889BF"/>
</g>
<defs>
<clipPath id="clip0_137_1033">
<rect width="20" height="20" fill="white" transform="translate(0 0.5)"/>
</clipPath>
</defs>
</svg>
