<svg width="20" height="21" viewBox="0 0 20 21" fill="none" xmlns="http://www.w3.org/2000/svg">
<g clip-path="url(#clip0_137_1041)">
<path d="M12.9592 11.3301L11.2842 13.0108C10.6049 13.6924 9.40979 13.7071 8.71584 13.0108L7.04073 11.3301L1.02448 17.3659C1.24842 17.4694 1.49533 17.5312 1.75783 17.5312H18.2422C18.5047 17.5312 18.7515 17.4695 18.9754 17.3659L12.9592 11.3301Z" fill="#2889BF"/>
<path d="M18.2422 3.46875H1.75782C1.49532 3.46875 1.2484 3.53055 1.02454 3.6341L7.45333 10.0842C7.45375 10.0846 7.45426 10.0847 7.45469 10.0852C7.45512 10.0856 7.4552 10.0862 7.4552 10.0862L9.54555 12.1834C9.76758 12.4055 10.2325 12.4055 10.4545 12.1834L12.5445 10.0865C12.5445 10.0865 12.545 10.0856 12.5454 10.0852C12.5454 10.0852 12.5463 10.0846 12.5468 10.0842L18.9754 3.63406C18.7515 3.53047 18.5047 3.46875 18.2422 3.46875Z" fill="#2889BF"/>
<path d="M0.186953 4.45312C0.0710937 4.68742 0 4.9475 0 5.22609V15.773C0 16.0516 0.0710156 16.3116 0.186914 16.5459L6.21359 10.4997L0.186953 4.45312Z" fill="#2889BF"/>
<path d="M19.8132 4.45312L13.7866 10.4998L19.8132 16.5461C19.9291 16.3118 20.0002 16.0517 20.0002 15.773V5.22617C20.0002 4.9475 19.9291 4.68742 19.8132 4.45312Z" fill="#2889BF"/>
</g>
<defs>
<clipPath id="clip0_137_1041">
<rect width="20" height="20" fill="white" transform="translate(0 0.5)"/>
</clipPath>
</defs>
</svg>
