<svg width="16" height="16" viewBox="0 0 16 16" fill="none" xmlns="http://www.w3.org/2000/svg">
<path d="M8 16C12.4183 16 16 12.4183 16 8C16 3.58172 12.4183 0 8 0C3.58172 0 0 3.58172 0 8C0 12.4183 3.58172 16 8 16Z" fill="#699635"/>
<path d="M7.91914 6.58639C7.89247 6.34639 8.02581 6.10639 8.26581 6.15972C8.45247 6.18639 8.66581 6.37306 8.55914 6.55972C8.39914 6.85306 7.97247 6.85306 7.70581 7.01306C7.73247 7.17306 8.50581 6.98639 8.63914 6.98639C8.77247 6.98639 8.90581 7.03972 8.82581 7.19972C8.74581 7.35972 8.47914 7.35972 8.31914 7.38639C8.15914 7.41306 7.89247 7.41306 7.81247 7.54639C7.65247 7.75972 7.97247 7.78639 8.07914 7.83972C8.34581 7.97306 7.91914 8.10639 7.81247 8.07972C7.41247 7.99972 7.33247 7.78639 7.09247 7.51972C6.85247 7.83972 6.10581 8.55972 5.94581 7.81306C5.67914 7.91972 5.41247 8.05306 5.11914 8.07972C5.25247 7.89306 5.51914 7.81306 5.73247 7.70639C5.99914 7.57306 5.99914 7.33306 6.15914 7.11972C6.21247 7.19972 6.15914 7.30639 6.18581 7.41306C6.39914 7.30639 6.66581 7.09306 6.55914 6.82639C6.55914 6.79972 6.23914 6.15972 6.50581 6.26639C6.74581 6.37306 6.66581 6.61306 6.71914 6.79972C6.79914 7.14639 6.63914 7.33306 6.37247 7.54639C6.26581 7.62639 5.97247 7.94639 6.31914 7.94639C6.55914 7.94639 6.77247 7.67972 6.90581 7.51972C7.06581 7.30639 7.01247 7.09306 6.90581 6.85306C6.82581 6.66639 6.63914 6.26639 6.87914 6.13306C7.06581 6.42639 7.14581 6.77306 7.22581 7.11972C7.27914 7.41306 7.33247 7.70639 7.65247 7.78639C7.62581 7.57306 7.75914 7.41306 7.94581 7.33306C7.81247 7.22639 7.06581 7.35972 7.35914 6.95972C7.38581 6.77306 7.91914 6.69306 7.91914 6.58639Z" fill="white"/>
<path d="M3.83977 7.5733C3.9731 7.94663 4.42644 7.8133 4.69311 7.70663C5.11977 7.4933 5.11977 7.1733 5.11977 6.74663C4.95977 6.82663 4.98644 7.11997 4.93311 7.2533C4.82644 7.46663 4.47977 7.6533 4.23977 7.62663C3.8931 7.5733 3.7331 6.98663 3.99977 6.7733C4.0531 6.95997 3.91977 7.35997 4.23977 7.38663C4.47977 7.4133 4.95977 7.11997 4.87977 6.8533C4.55977 6.95997 4.3731 6.8533 4.47977 6.50663C4.55977 6.18663 4.87977 6.42663 5.0131 6.58663C5.51977 6.2933 4.6131 5.1733 5.14644 4.87997C5.2531 5.06663 5.4131 5.30663 5.27977 5.4933C5.11977 5.70663 5.27977 6.15997 5.30644 6.39997C5.5731 6.15997 5.35977 6.58663 5.5731 6.6133C5.70644 6.63997 5.75977 6.2933 5.83977 6.2933C5.86644 6.3733 5.86644 6.6133 5.99977 6.58663C6.15977 6.5333 5.97311 6.31997 6.13311 6.26663C6.18644 6.39997 6.15977 6.79997 5.9731 6.7733C5.8131 6.74663 5.83977 6.63997 5.65311 6.74663C5.49311 6.82663 5.43977 6.74663 5.33311 6.66663C5.30644 6.98663 5.41311 7.3333 5.22644 7.62663C5.06644 7.86663 4.74644 7.99997 4.47977 8.0533C3.78644 8.18663 3.59977 7.4933 3.83977 6.9333C3.8931 7.0933 3.78644 7.38663 3.83977 7.5733ZM10.3464 7.70663C10.4798 8.0533 10.7464 7.3333 10.8264 7.22663C11.0398 6.90663 11.3598 7.7333 11.4931 7.19997C11.5731 6.8533 11.4664 6.50663 11.4398 6.15997C11.4131 5.91997 11.3331 5.70663 11.1731 5.51997C11.0131 5.30663 10.8531 5.11997 10.9331 4.8533C11.1998 4.95997 11.1998 5.1733 11.3331 5.38663C11.3598 5.22663 11.2531 5.0133 11.3598 4.87997C11.4931 4.6933 11.5998 5.19997 11.5998 5.2533C11.6264 5.38663 11.4931 5.43997 11.5731 5.6533C11.6264 5.8133 11.7331 5.9733 11.8398 6.10663C11.8131 5.94663 11.5731 4.8533 11.8398 4.8533C11.9198 4.8533 11.9998 5.1733 11.9998 5.22663C12.0531 5.38663 11.9464 5.51997 11.9464 5.70663C11.9198 6.02663 11.9731 6.39997 12.1864 6.63997C12.2931 6.7733 12.6931 7.2533 12.4798 7.4133C12.3198 7.22663 12.2131 7.0133 12.0798 6.82663C12.0798 7.03997 12.1331 7.27997 12.0264 7.43997C11.9198 7.38663 11.9731 7.03997 11.9731 6.95997C11.9731 6.66663 11.7864 6.42663 11.6264 6.18663C11.5731 6.58663 11.8931 7.3333 11.5198 7.62663C11.2798 7.83997 10.9598 7.35997 10.8798 7.54663C10.7998 7.67997 10.6131 8.15997 10.3998 8.10663C10.1331 8.0533 9.94644 7.30663 10.2398 7.22663C10.2664 7.35997 10.2664 7.54663 10.3464 7.70663Z" fill="white"/>
<path d="M4.63951 5.89327C4.82618 5.91993 4.63951 5.27993 4.63951 5.17327C4.66618 5.0666 4.74618 5.01327 4.79951 5.11993C4.87951 5.27993 4.87951 5.4666 4.90618 5.6266C4.90618 5.75993 4.93285 5.91993 4.82618 6.0266C4.66618 6.1866 4.45285 6.1066 4.37285 5.89327C3.99951 6.21327 4.47951 6.77327 4.15951 7.09327C4.10618 6.79993 4.15951 6.47993 4.05285 6.21327C3.99951 6.07993 3.75951 6.13327 3.73285 5.89327C3.73285 5.7866 3.81285 5.49327 3.70618 5.41327C3.65285 5.51993 3.59951 6.3466 3.33285 6.1066C3.11951 5.9466 3.17285 5.41327 3.25285 5.19993C3.41285 5.27993 3.22618 5.8666 3.43951 5.89327C3.54618 5.91993 3.57285 5.4666 3.59951 5.3866C3.67951 5.25327 3.94618 4.87993 3.89285 5.25327C3.86618 5.41327 3.73285 5.91993 4.05285 5.89327C4.02618 5.6266 3.99951 5.35993 3.94618 5.09327C3.91951 4.95993 3.99951 4.69327 4.10618 4.93327C4.18618 5.09327 4.13285 5.17327 4.10618 5.33327C4.07951 5.51993 4.15951 5.7066 4.18618 5.8666C4.34618 5.73327 4.13285 5.2266 4.26618 5.01327C4.58618 5.19993 4.23951 5.83993 4.63951 5.89327ZM8.07951 5.9466C7.94618 6.13327 7.70618 5.97327 7.59951 5.83993C7.46618 5.99993 7.19951 6.2666 6.98618 6.05327C6.82618 5.89327 7.01285 5.59993 6.87951 5.4666C6.79951 5.59993 6.66618 6.23993 6.42618 5.9466C6.29285 5.7866 6.10618 5.2266 6.39951 5.09327C6.37285 5.3066 6.31951 5.5466 6.45285 5.73327C6.58618 5.91993 6.71951 5.43993 6.77285 5.33327C6.85285 5.1466 7.11951 4.8266 7.06618 5.2266C7.03951 5.3866 6.98618 5.75993 7.14618 5.8666C7.25285 5.9466 7.38618 5.81327 7.43951 5.73327C7.54618 5.59993 7.49285 5.3866 7.46618 5.2266C7.43951 5.09327 7.38618 4.93327 7.46618 4.79993C7.57285 4.63993 7.65285 5.01327 7.65285 5.09327C7.65285 5.17327 7.75951 5.99993 7.94618 5.73327C8.13285 5.49327 7.62618 4.95993 7.97285 4.8266C8.10618 4.77327 8.34618 5.3066 8.07951 5.1466C8.15951 5.3866 8.26618 5.73327 8.07951 5.9466ZM9.09285 6.2666C9.11951 6.61327 9.41285 7.57327 9.01285 7.7866C8.95951 7.67993 9.01285 7.51993 9.03951 7.3866C9.06618 7.1466 9.01285 6.9066 8.98618 6.69327C8.93285 6.1866 8.87951 5.81327 8.53285 5.41327C8.45285 5.3066 8.31951 5.2266 8.29285 5.0666C8.29285 5.01327 8.26618 4.77327 8.37285 4.8266C8.45285 4.85327 8.90618 5.25327 8.66618 5.25327C8.69285 5.3066 8.79951 5.51993 8.85285 5.51993C8.85285 5.3866 8.69285 4.9866 8.85285 4.9066C8.98618 4.8266 9.14618 5.33327 9.09285 5.43993C9.03951 5.57327 9.03951 5.65327 9.09285 5.83993C9.14618 6.05327 9.27951 6.23993 9.38618 6.4266C9.54618 6.69327 9.86618 7.0666 9.78618 7.41326C9.62618 7.33326 9.51951 6.95993 9.43951 6.79993C9.38618 6.6666 9.33285 6.53327 9.25285 6.4266C9.22618 6.39993 9.06618 6.1866 9.09285 6.31993V6.2666ZM12.7995 6.77327C12.8262 7.33327 12.6395 8.05327 11.9462 8.05327C11.9462 7.89327 12.2928 7.73327 12.3995 7.65327C12.6662 7.43993 12.6395 7.03993 12.6128 6.7466C12.5862 6.3466 12.5595 5.9466 12.4795 5.5466C12.4528 5.3066 12.3195 4.95993 12.5328 4.79993C12.6662 4.9066 12.8528 5.19993 12.7728 5.3066C12.6395 5.4666 12.7728 6.6666 12.7995 6.77327Z" fill="white"/>
<path d="M9.38596 7.97327C10.0793 7.57327 9.86596 6.71994 9.81263 6.05327C9.78596 5.86661 9.78596 5.67994 9.7593 5.49327C9.7593 5.35994 9.65263 5.17327 9.70596 5.03994C9.8393 4.69327 9.94596 5.01327 9.97263 5.22661C9.9993 5.35994 9.89263 5.38661 9.9193 5.49327C9.94596 5.70661 9.94596 5.91994 9.97263 6.13327C9.9993 6.47994 10.0526 6.82661 10.026 7.14661C9.97263 7.65327 9.70596 8.21327 9.09263 8.10661C9.1193 8.05327 9.30596 8.02661 9.38596 7.97327ZM10.506 6.63994C10.5326 6.90661 10.6393 7.38661 10.506 7.62661C10.3993 7.78661 10.3993 7.51994 10.3726 7.49327C10.346 7.27994 10.346 7.06661 10.346 6.82661C10.2926 6.23994 10.106 5.65327 10.106 5.09327C10.106 4.37327 10.7193 5.49327 10.3726 5.43994C10.3993 5.83994 10.4526 6.23994 10.506 6.63994ZM6.1593 5.27994C6.21263 5.41327 5.54596 5.75994 5.46596 5.75994C5.4393 5.62661 5.7593 5.43994 5.8393 5.38661C5.9193 5.30661 5.97263 5.30661 5.94596 5.19994C5.89263 5.09327 5.9193 4.90661 6.05263 4.85327C6.3193 4.77327 6.13263 5.17327 6.1593 5.27994ZM3.41263 7.65327C3.41263 7.86661 3.49263 7.75994 3.5993 7.70661C3.65263 7.81327 3.5193 8.10661 3.38596 7.97327C3.1993 7.78661 3.3593 7.35994 3.4393 7.17327C3.49263 7.30661 3.38596 7.51994 3.41263 7.65327ZM10.9326 5.99994C10.9593 5.89327 10.8793 5.78661 10.9593 5.67994C11.066 5.54661 11.1726 5.70661 11.1193 5.75994C11.066 5.81327 10.986 5.70661 10.986 5.86661C10.986 5.94661 11.0393 6.10661 10.9593 6.18661C10.906 6.15994 10.666 5.81327 10.6926 5.75994C10.7993 5.65327 10.906 5.97327 10.9326 5.99994ZM3.97263 6.45327C3.9193 6.55994 3.30596 6.90661 3.2793 6.82661C3.2793 6.74661 4.05263 6.29327 3.97263 6.45327ZM8.50596 7.81327C8.42596 8.05327 8.77263 7.83994 8.85263 7.81327C8.74596 7.99994 8.37263 8.15994 8.42596 7.81327C8.3993 7.81327 8.34596 7.83994 8.3193 7.83994C8.26596 7.78661 8.58596 7.57327 8.50596 7.81327ZM11.4126 7.73327C11.4926 7.73327 11.626 7.97327 11.546 8.02661C11.4926 8.07994 11.2526 8.10661 11.386 7.99994C11.546 7.83994 11.4126 7.73327 11.4126 7.73327ZM7.65263 6.37327C7.6793 6.31994 7.6793 6.23994 7.70596 6.18661C7.97263 6.39994 7.2793 6.74661 7.41263 6.23994C7.46596 6.29327 7.46596 6.37327 7.5193 6.39994C7.5193 6.34661 7.54596 6.26661 7.54596 6.21327C7.5993 6.26661 7.5993 6.34661 7.65263 6.37327ZM10.7726 6.71994C10.6926 6.61327 11.1726 6.31994 11.2526 6.26661C11.306 6.34661 10.9326 6.63994 10.7726 6.71994ZM12.266 5.65327C12.2126 5.49327 12.0526 5.17327 12.2126 5.03994C12.3193 5.11994 12.3726 5.51994 12.266 5.65327ZM9.3593 5.11994C9.33263 5.06661 9.25263 5.01327 9.25263 4.93327C9.2793 4.82661 9.33263 4.85327 9.38596 4.90661C9.46596 5.01327 9.5193 5.30661 9.38596 5.38661C9.38596 5.30661 9.41263 5.19994 9.3593 5.11994ZM6.10596 5.83994C6.10596 5.99994 5.8393 6.15994 5.81263 5.94661C5.78596 5.86661 5.9193 5.57327 5.97263 5.65327C5.86596 5.89327 5.86596 5.97327 6.10596 5.83994Z" fill="white"/>
<path d="M9.43946 5.54657C9.54613 5.81324 9.49279 5.57324 9.59946 5.51991C9.78613 5.86657 9.19946 5.78657 9.33279 5.57324C9.35946 5.59991 9.38613 5.65324 9.38613 5.67991C9.41279 5.65324 9.41279 5.59991 9.43946 5.54657ZM11.1461 6.77324C11.0128 6.66657 11.1728 6.53324 11.2528 6.66657C11.3061 6.74657 11.3061 6.95991 11.1995 7.01324C11.1995 6.93324 11.2261 6.82657 11.1461 6.77324ZM5.67946 7.35991C5.67946 7.30657 5.65279 6.90657 5.73279 6.95991C5.83946 7.01324 5.81279 7.30657 5.67946 7.35991ZM4.55946 4.85324C4.58613 4.93324 4.61279 5.03991 4.66613 4.90657C4.87946 5.14657 4.13279 5.06657 4.39946 4.82657C4.39946 4.85324 4.45279 5.01324 4.55946 4.85324ZM7.27946 5.43991C7.27946 5.33324 7.11946 4.87991 7.25279 4.87991C7.41279 4.90657 7.38613 5.30657 7.27946 5.43991ZM3.54613 5.19991C3.46613 5.17324 3.59946 5.03991 3.54613 4.93324C3.49279 4.95991 3.43946 4.87991 3.49279 4.82657C3.70613 4.66657 3.62613 5.19991 3.54613 5.19991ZM10.4528 10.6132L10.3461 10.2932L10.2395 10.6132H4.39946C4.39946 10.6132 4.45279 11.0932 5.03946 11.0932H10.2128V11.4666H11.6261V10.6132H10.4528ZM11.3595 11.2532H10.3995V10.9866H11.3595V11.2532Z" fill="white"/>
</svg>
