<svg width="20" height="21" viewBox="0 0 20 21" fill="none" xmlns="http://www.w3.org/2000/svg">
<g clip-path="url(#clip0_137_1057)">
<path d="M10.4453 0.5C6.93105 0.5 4 3.33086 4 6.94531C4 8.32039 4.4132 9.54656 5.20621 10.6955L9.95207 18.101C10.1823 18.461 10.7088 18.4603 10.9386 18.101L15.705 10.6704C16.4809 9.57344 16.8906 8.28543 16.8906 6.94531C16.8906 3.39137 13.9993 0.5 10.4453 0.5ZM10.4453 9.875C8.82996 9.875 7.51562 8.56066 7.51562 6.94531C7.51562 5.32996 8.82996 4.01562 10.4453 4.01562C12.0607 4.01562 13.375 5.32996 13.375 6.94531C13.375 8.56066 12.0607 9.875 10.4453 9.875Z" fill="#2889BF"/>
<path d="M14.5806 13.9646L11.6302 18.5774C10.8665 19.7681 9.12926 19.7642 8.36922 18.5785L5.41398 13.9658C2.81383 14.567 1.21094 15.6683 1.21094 16.9843C1.21094 19.268 5.73938 20.5 10 20.5C14.2606 20.5 18.7891 19.268 18.7891 16.9843C18.7891 15.6673 17.1839 14.5655 14.5806 13.9646Z" fill="#2889BF"/>
</g>
<defs>
<clipPath id="clip0_137_1057">
<rect width="20" height="20" fill="white" transform="translate(0 0.5)"/>
</clipPath>
</defs>
</svg>
